<svg width="40" height="53" viewBox="0 0 40 53" fill="none" xmlns="http://www.w3.org/2000/svg">
<path d="M20 0C15.6458 0 11.9375 2.76387 10.5729 6.625H6.66667C2.98958 6.625 0 9.5959 0 13.25V46.375C0 50.0291 2.98958 53 6.66667 53H33.3333C37.0104 53 40 50.0291 40 46.375V13.25C40 9.5959 37.0104 6.625 33.3333 6.625H29.4271C28.0625 2.76387 24.3542 0 20 0ZM20 6.625C20.8841 6.625 21.7319 6.97399 22.357 7.59521C22.9821 8.21642 23.3333 9.05897 23.3333 9.9375C23.3333 10.816 22.9821 11.6586 22.357 12.2798C21.7319 12.901 20.8841 13.25 20 13.25C19.1159 13.25 18.2681 12.901 17.643 12.2798C17.0179 11.6586 16.6667 10.816 16.6667 9.9375C16.6667 9.05897 17.0179 8.21642 17.643 7.59521C18.2681 6.97399 19.1159 6.625 20 6.625ZM13.3333 26.5C13.3333 24.7429 14.0357 23.0578 15.286 21.8154C16.5362 20.573 18.2319 19.875 20 19.875C21.7681 19.875 23.4638 20.573 24.714 21.8154C25.9643 23.0578 26.6667 24.7429 26.6667 26.5C26.6667 28.2571 25.9643 29.9422 24.714 31.1846C23.4638 32.427 21.7681 33.125 20 33.125C18.2319 33.125 16.5362 32.427 15.286 31.1846C14.0357 29.9422 13.3333 28.2571 13.3333 26.5ZM8.33333 44.7188C8.33333 40.1434 12.0625 36.4375 16.6667 36.4375H23.3333C27.9375 36.4375 31.6667 40.1434 31.6667 44.7188C31.6667 45.6297 30.9167 46.375 30 46.375H10C9.08333 46.375 8.33333 45.6297 8.33333 44.7188Z" fill="#E53939"/>
</svg>
