<svg width="49" height="49" viewBox="0 0 49 49" fill="none" xmlns="http://www.w3.org/2000/svg">
<path d="M7 0C3.13906 0 0 3.13906 0 7V42C0 45.8609 3.13906 49 7 49H42C45.8609 49 49 45.8609 49 42V7C49 3.13906 45.8609 0 42 0H7ZM23.8438 26.2172L7.02187 15.3562C7.21875 13.6062 8.69531 12.25 10.5 12.25H38.5C40.3047 12.25 41.7812 13.6062 41.9781 15.3562L25.1562 26.2172C24.9594 26.3484 24.7297 26.4141 24.5 26.4141C24.2703 26.4141 24.0406 26.3484 23.8438 26.2172ZM27.0594 29.1594L42 19.5125V33.25C42 35.1859 40.4359 36.75 38.5 36.75H10.5C8.56406 36.75 7 35.1859 7 33.25V19.5125L21.9406 29.1594C22.7063 29.6516 23.5922 29.9141 24.5 29.9141C25.4078 29.9141 26.2937 29.6516 27.0594 29.1594Z" fill="#E53939"/>
</svg>
