<svg width="49" height="49" viewBox="0 0 49 49" fill="none" xmlns="http://www.w3.org/2000/svg">
<path d="M49 7C49 3.13906 45.8609 0 42 0H7C3.13906 0 0 3.13906 0 7V42C0 45.8609 3.13906 49 7 49H42C45.8609 49 49 45.8609 49 42V7ZM29.0719 41.0922C29.0719 40.8953 29.0719 40.4359 29.0828 39.8234C29.0938 38.5766 29.0938 36.6734 29.0938 35.0438C29.0938 33.3375 28.525 32.2547 27.8578 31.6859C31.9047 31.2375 36.1703 30.6797 36.1703 23.6906C36.1703 21.7 35.4594 20.7047 34.3 19.425C34.4859 18.9547 35.1094 17.0188 34.1141 14.5031C32.5938 14.0328 29.1156 16.4609 29.1156 16.4609C27.6719 16.0562 26.1078 15.8484 24.5656 15.8484C23.0234 15.8484 21.4594 16.0562 20.0156 16.4609C20.0156 16.4609 16.5375 14.0328 15.0172 14.5031C14.0219 17.0078 14.6344 18.9438 14.8313 19.425C13.6719 20.7047 13.125 21.7 13.125 23.6906C13.125 30.6469 17.2047 31.2375 21.2516 31.6859C20.7266 32.1562 20.2563 32.9656 20.0922 34.125C19.0531 34.5953 16.3953 35.4047 14.8094 32.6047C13.8141 30.8766 12.0203 30.7344 12.0203 30.7344C10.2484 30.7125 11.9 31.85 11.9 31.85C13.0813 32.3969 13.9125 34.4969 13.9125 34.4969C14.9734 37.7453 20.0484 36.6516 20.0484 36.6516C20.0484 37.6359 20.0594 39.025 20.0594 39.9984C20.0594 40.5234 20.0703 40.9391 20.0703 41.0922C20.0703 41.5625 19.7422 42.1313 18.8125 41.9672C11.5938 39.55 6.54063 32.6812 6.54063 24.6531C6.54063 14.6125 14.2188 6.98906 24.2594 6.98906C34.3 6.98906 42.4375 14.6125 42.4375 24.6531C42.4484 32.6812 37.5484 39.5609 30.3297 41.9672C29.4109 42.1313 29.0719 41.5625 29.0719 41.0922ZM19.1734 35.0984C19.1516 34.9344 19.2938 34.7922 19.5016 34.7484C19.7094 34.7266 19.9062 34.8141 19.9281 34.9562C19.9609 35.0984 19.8188 35.2406 19.6 35.2844C19.3922 35.3281 19.1953 35.2406 19.1734 35.0984ZM18.1781 35.4484C17.9375 35.4703 17.7734 35.35 17.7734 35.1859C17.7734 35.0438 17.9375 34.9234 18.1562 34.9234C18.3641 34.9016 18.5609 35.0219 18.5609 35.1859C18.5609 35.3281 18.3969 35.4484 18.1781 35.4484ZM16.6141 35.2078C16.4062 35.1641 16.2641 35 16.3078 34.8578C16.3516 34.7156 16.5703 34.65 16.7563 34.6938C16.975 34.7594 17.1172 34.9234 17.0625 35.0656C17.0187 35.2078 16.8 35.2734 16.6141 35.2078ZM15.2469 34.4094C15.0828 34.2672 15.0391 34.0594 15.1484 33.9609C15.2469 33.8406 15.4547 33.8625 15.6188 34.0266C15.7609 34.1688 15.8156 34.3875 15.7172 34.475C15.6187 34.5953 15.4109 34.5734 15.2469 34.4094ZM14.3172 33.3156C14.1969 33.1516 14.1969 32.9656 14.3172 32.8891C14.4375 32.7906 14.6234 32.8672 14.7219 33.0312C14.8422 33.1953 14.8422 33.3922 14.7219 33.4797C14.6234 33.5453 14.4375 33.4797 14.3172 33.3156ZM13.6281 32.3531C13.5078 32.2109 13.4859 32.0469 13.5844 31.9703C13.6828 31.8719 13.8469 31.9266 13.9672 32.0359C14.0875 32.1781 14.1094 32.3422 14.0109 32.4188C13.9125 32.5172 13.7484 32.4625 13.6281 32.3531ZM12.9719 31.6531C12.8297 31.5875 12.7641 31.4672 12.8078 31.3687C12.8516 31.3031 12.9719 31.2703 13.1141 31.325C13.2563 31.4016 13.3219 31.5219 13.2781 31.6094C13.2344 31.7078 13.0922 31.7297 12.9719 31.6531Z" fill="#E53939"/>
</svg>
