<svg width="90" height="90" viewBox="0 0 90 90" fill="none" xmlns="http://www.w3.org/2000/svg">
<g clip-path="url(#clip0_167_59)">
<path d="M-0.355957 -0.0761719V89.9747H89.6949V-0.0761719H-0.355957ZM48.6494 70.1554C48.6494 78.9193 43.5036 82.9193 36.0061 82.9193C29.2322 82.9193 25.3126 79.4218 23.3025 75.1806L30.197 71.0198C31.5237 73.3715 32.7297 75.3615 35.6443 75.3615C38.4182 75.3615 40.187 74.2761 40.187 70.0348V41.2708H48.6494V70.1554ZM68.6696 82.9193C60.8103 82.9193 55.7248 79.1806 53.2524 74.2761L60.147 70.2962C61.956 73.2509 64.3279 75.4419 68.4887 75.4419C71.9862 75.4419 74.2375 73.6932 74.2375 71.261C74.2375 68.3665 71.946 67.3414 68.0666 65.6328L65.956 64.7283C59.8454 62.1353 55.8052 58.8589 55.8052 51.9644C55.8052 45.6126 60.6495 40.7884 68.1872 40.7884C73.5742 40.7884 77.4335 42.6578 80.2074 47.5623L73.6144 51.7835C72.1671 49.1905 70.5993 48.1654 68.1671 48.1654C65.6947 48.1654 64.1269 49.7332 64.1269 51.7835C64.1269 54.3161 65.6947 55.3413 69.3329 56.9292L71.4435 57.8338C78.6395 60.9092 82.6798 64.0649 82.6798 71.1404C82.6798 78.7384 76.6898 82.9193 68.6696 82.9193Z" fill="#E53939"/>
</g>
<defs>
<clipPath id="clip0_167_59">
<rect width="90" height="90" fill="white"/>
</clipPath>
</defs>
</svg>
