<svg width="49" height="49" viewBox="0 0 49 49" fill="none" xmlns="http://www.w3.org/2000/svg">
<path d="M45.5 0H3.48906C1.56406 0 0 1.58594 0 3.53281V45.4672C0 47.4141 1.56406 49 3.48906 49H45.5C47.425 49 49 47.4141 49 45.4672V3.53281C49 1.58594 47.425 0 45.5 0ZM14.8094 42H7.54688V18.6156H14.8203V42H14.8094ZM11.1781 15.4219C8.84844 15.4219 6.96719 13.5297 6.96719 11.2109C6.96719 8.89219 8.84844 7 11.1781 7C13.4969 7 15.3891 8.89219 15.3891 11.2109C15.3891 13.5406 13.5078 15.4219 11.1781 15.4219ZM42.0328 42H34.7703V30.625C34.7703 27.9125 34.7156 24.4234 30.9969 24.4234C27.2125 24.4234 26.6328 27.3766 26.6328 30.4281V42H19.3703V18.6156H26.3375V21.8094H26.4359C27.4094 19.9719 29.7828 18.0359 33.3156 18.0359C40.6656 18.0359 42.0328 22.8812 42.0328 29.1812V42Z" fill="#E53939"/>
</svg>
