<svg width="62" height="54" viewBox="0 0 62 54" fill="none" xmlns="http://www.w3.org/2000/svg">
<path d="M31 5.78571C17.0863 5.78571 5.8125 17.0076 5.8125 30.8571V43.3929C5.8125 44.996 4.5168 46.2857 2.90625 46.2857C1.2957 46.2857 0 44.996 0 43.3929V30.8571C0 13.8134 13.8773 0 31 0C48.1227 0 62 13.8134 62 30.8571V43.3929C62 44.996 60.7043 46.2857 59.0938 46.2857C57.4832 46.2857 56.1875 44.996 56.1875 43.3929V30.8571C56.1875 17.0076 44.9137 5.78571 31 5.78571ZM9.6875 38.5714C9.6875 34.3165 13.1629 30.8571 17.4375 30.8571H19.375C21.5184 30.8571 23.25 32.5808 23.25 34.7143V50.1429C23.25 52.2763 21.5184 54 19.375 54H17.4375C13.1629 54 9.6875 50.5406 9.6875 46.2857V38.5714ZM44.5625 30.8571C48.8371 30.8571 52.3125 34.3165 52.3125 38.5714V46.2857C52.3125 50.5406 48.8371 54 44.5625 54H42.625C40.4816 54 38.75 52.2763 38.75 50.1429V34.7143C38.75 32.5808 40.4816 30.8571 42.625 30.8571H44.5625Z" fill="#E53939"/>
</svg>
