<svg width="90" height="80" viewBox="0 0 90 80" fill="none" xmlns="http://www.w3.org/2000/svg">
<g clip-path="url(#clip0_167_69)">
<path d="M2.63191 79.627C2.63191 79.627 3.82549 67.8525 12.1777 53.9255C20.5328 39.9985 34.7766 29.4599 46.3532 28.4219C69.3876 26.1139 90.0801 46.764 90.0801 46.764C90.0801 46.764 89.4012 47.2392 88.6828 47.8388C66.0868 31.1315 52.2843 39.0057 47.9427 41.1157C28.0506 52.2171 34.0553 79.627 34.0553 79.627H2.63757H2.63191ZM68.1148 30.6506C66.842 30.1359 65.5692 29.6607 64.2569 29.2223L64.4153 26.5919C66.9184 27.3103 67.914 27.7883 68.2703 27.9863L68.112 30.6535L68.1148 30.6506ZM64.3332 39.0906C65.606 39.1698 66.9212 39.3281 68.2732 39.6082L68.1148 42.0745C66.8024 41.7917 65.49 41.6361 64.1777 41.5937L64.3361 39.0906H64.3332ZM49.6171 26.6711C48.466 26.6711 47.312 26.7135 46.158 26.8351L45.4 24.4876C46.7152 24.3292 47.988 24.25 49.2183 24.25L50.0159 26.6768H49.6199L49.6171 26.6711ZM51.5291 41.3165C52.519 40.8809 53.6787 40.4397 55.0278 40.0437L55.9046 42.6741C54.745 43.0277 53.5938 43.5057 52.4399 44.06L51.5263 41.3165H51.5291ZM33.467 30.8515C32.4318 31.3719 31.4362 31.9687 30.4039 32.6051L28.5739 29.8191C29.6487 29.1827 30.6811 28.6312 31.6766 28.1108L33.467 30.8515ZM41.6213 48.7552C42.334 47.8416 43.1712 46.928 44.082 46.0908L45.8752 48.7976C44.9984 49.7112 44.2064 50.6276 43.5276 51.626L41.6213 48.7552ZM35.8513 61.5678C36.1681 60.1366 36.5302 58.663 37.0449 57.1923L39.9073 59.4606C39.5113 61.0106 39.2284 62.5634 39.0729 64.1133L35.8513 61.5678ZM18.4285 42.6713C17.4668 43.6612 16.5561 44.736 15.7189 45.8108L12.6586 43.1861C13.5721 42.1905 14.5649 41.1949 15.6001 40.2021L18.4285 42.6685V42.6713ZM6.40781 60.4506C5.77425 61.9213 4.93705 63.8729 4.42228 65.2249L-0.154053 63.5561C0.241922 62.4813 1.07913 60.4902 1.83431 58.7762L6.41064 60.4506H6.40781ZM35.2574 71.6708L39.5509 73.2207C39.7885 75.096 40.1448 76.8411 40.504 78.3967L35.7297 76.6855C35.5317 75.4919 35.3338 73.7808 35.2546 71.6736L35.2574 71.6708Z" fill="#E53939"/>
</g>
<defs>
<clipPath id="clip0_167_69">
<rect width="90" height="80" fill="white"/>
</clipPath>
</defs>
</svg>
