<svg width="91" height="91" viewBox="0 0 91 91" fill="none" xmlns="http://www.w3.org/2000/svg">
<g clip-path="url(#clip0_167_61)">
<path d="M74.0033 31.741C73.0541 31.4246 72.1049 31.1257 71.1556 30.8445C71.3138 30.1941 71.4545 29.5437 71.5951 28.8933C73.7572 18.4167 72.3334 9.99683 67.5345 7.21948C62.9115 4.56518 55.3705 7.32495 47.7416 13.9695C46.9857 14.6199 46.2474 15.3054 45.5443 15.991C45.0697 15.5339 44.5775 15.0769 44.0853 14.6375C36.0873 7.53589 28.0717 4.54761 23.2728 7.34253C18.6674 10.0144 17.2963 17.9421 19.2299 27.8562C19.4232 28.8406 19.6342 29.8074 19.8802 30.7917C18.7552 31.1082 17.6478 31.4597 16.6107 31.8289C7.224 35.0808 0.491577 40.2136 0.491577 45.5222C0.491577 51.0066 7.66345 56.5085 17.4193 59.8484C18.2103 60.1121 19.0013 60.3757 19.8099 60.6042C19.5463 61.6589 19.3177 62.696 19.1068 63.7683C17.2611 73.5242 18.7025 81.2585 23.308 83.9128C28.0541 86.655 36.0345 83.8425 43.8041 77.0398C44.4193 76.4949 45.0345 75.9324 45.6498 75.3347C46.4232 76.0906 47.2318 76.8113 48.0404 77.5144C55.5638 83.9832 62.9994 86.6023 67.5873 83.948C72.3334 81.2058 73.8803 72.8914 71.8763 62.7664C71.7181 61.9929 71.5424 61.2019 71.349 60.3933C71.9115 60.2351 72.4564 60.0593 73.0013 59.8835C83.1439 56.5261 90.4916 51.0945 90.4916 45.5222C90.4916 40.196 83.5658 35.0281 74.0033 31.741ZM50.2201 16.8171C56.7592 11.1218 62.8588 8.8894 65.6361 10.489C68.6068 12.1941 69.7494 19.0847 67.8861 28.1374C67.7631 28.7351 67.64 29.3152 67.4818 29.8953C63.5795 29.0164 59.6244 28.3835 55.6517 28.032C53.3666 24.7625 50.8705 21.6335 48.1635 18.698C48.849 18.0476 49.517 17.4324 50.2201 16.8171ZM29.8822 54.6453C30.7787 56.1746 31.6927 57.7039 32.6595 59.198C29.9174 58.8992 27.1928 58.4597 24.5033 57.8796C25.2767 55.3484 26.2435 52.7292 27.3685 50.0574C28.1771 51.6042 29.0033 53.1335 29.8822 54.6453ZM24.556 33.4988C27.0873 32.9363 29.7767 32.4792 32.5717 32.1277C31.64 33.5867 30.726 35.0808 29.8646 36.5925C29.0033 38.0867 28.1595 39.616 27.3685 41.1628C26.2611 38.5437 25.3295 35.9773 24.556 33.4988ZM29.3724 45.6101C30.5326 43.1843 31.7982 40.8113 33.1342 38.4734C34.4701 36.1355 35.9115 33.8679 37.4232 31.6355C40.0599 31.4421 42.7494 31.3367 45.4916 31.3367C48.2338 31.3367 50.9408 31.4421 53.5599 31.6355C55.0541 33.8503 56.4779 36.1179 57.8314 38.4382C59.1849 40.7585 60.4506 43.1316 61.6459 45.5398C60.4681 47.9656 59.2025 50.3562 57.849 52.7117C56.5131 55.0496 55.0892 57.3171 53.5951 59.5671C50.976 59.7605 48.2513 59.8484 45.4916 59.8484C42.7318 59.8484 40.0599 59.7605 37.476 59.6023C35.9467 57.3699 34.5052 55.0847 33.1517 52.7468C31.7982 50.4089 30.5502 48.0359 29.3724 45.6101ZM61.1185 54.6101C62.015 53.0632 62.8588 51.4988 63.6849 49.9167C64.8099 52.4656 65.7943 55.0496 66.6556 57.7039C63.931 58.3191 61.1713 58.7937 58.3939 59.1101C59.3431 57.6335 60.2396 56.1218 61.1185 54.6101ZM63.6498 41.1628C62.8236 39.616 61.9799 38.0691 61.101 36.5574C60.2396 35.0632 59.3431 33.5867 58.4115 32.1277C61.2416 32.4792 63.9486 32.9539 66.4799 33.5339C65.6713 36.1355 64.722 38.6667 63.6498 41.1628ZM45.5267 21.3875C47.3724 23.3914 49.1127 25.5007 50.7299 27.6804C47.2494 27.5222 43.7513 27.5222 40.2709 27.6804C41.9935 25.4128 43.7689 23.3035 45.5267 21.3875ZM25.1361 10.6121C28.0892 8.8894 34.6459 11.3503 41.5541 17.4675C41.9935 17.8542 42.433 18.2761 42.89 18.698C40.1654 21.6335 37.6517 24.7625 35.349 28.032C31.3763 28.3835 27.4388 28.9988 23.5365 29.8601C23.308 28.9636 23.1146 28.0496 22.9213 27.1355C21.2689 18.6277 22.3588 12.2117 25.1361 10.6121ZM20.8295 56.948C20.0912 56.7371 19.3705 56.5085 18.6498 56.2625C14.9056 55.0847 10.6517 53.2214 7.57556 50.7781C5.80017 49.5476 4.60486 47.6492 4.27087 45.5222C4.27087 42.3054 9.82556 38.1921 17.8412 35.3972C18.8431 35.0457 19.8627 34.7292 20.8822 34.4304C22.0775 38.2449 23.5189 41.989 25.1888 45.6101C23.5013 49.2839 22.0424 53.0808 20.8295 56.948ZM41.3256 74.1746C38.4252 76.8289 35.0677 78.9382 31.4115 80.3796C29.4603 81.3113 27.2103 81.3992 25.2064 80.6082C22.4115 78.991 21.2513 72.7859 22.8334 64.4363C23.0267 63.4519 23.2377 62.4675 23.4838 61.5007C27.4213 62.3445 31.3939 62.9246 35.4193 63.2234C37.7396 66.5105 40.2885 69.657 43.0131 72.6101C42.4506 73.155 41.8881 73.6824 41.3256 74.1746ZM45.6322 69.9031C43.8392 67.9695 42.0463 65.8249 40.306 63.5222C41.9935 63.5925 43.7338 63.6277 45.4916 63.6277C47.3021 63.6277 49.0775 63.5925 50.8353 63.5046C49.2181 65.7371 47.4779 67.864 45.6322 69.9031ZM68.6068 75.1765C68.4486 77.321 67.3939 79.325 65.7064 80.6785C62.9115 82.2957 56.9525 80.1863 50.5189 74.6667C49.7806 74.0339 49.0424 73.3484 48.2865 72.6453C50.976 69.6746 53.4545 66.5281 55.7045 63.2234C59.7299 62.8894 63.7377 62.2742 67.6927 61.3777C67.8685 62.0984 68.0267 62.8191 68.1674 63.5222C69.0287 67.3191 69.1693 71.2742 68.6068 75.1765ZM71.806 56.28C71.3138 56.4382 70.8217 56.5964 70.3119 56.7371C69.0814 52.905 67.5697 49.1609 65.8295 45.5222C67.517 41.9363 68.9408 38.2449 70.1361 34.4656C71.0502 34.7292 71.9291 35.0105 72.7728 35.2917C80.9642 38.1042 86.7123 42.2878 86.7123 45.4871C86.7123 48.9324 80.5775 53.3796 71.806 56.28ZM45.4916 53.6433C49.9388 53.6433 53.5424 50.0398 53.5424 45.5925C53.5424 41.1453 49.9388 37.5417 45.4916 37.5417C41.0443 37.5417 37.4408 41.1453 37.4408 45.5925C37.4408 50.0398 41.0443 53.6433 45.4916 53.6433Z" fill="#E53939"/>
</g>
<defs>
<clipPath id="clip0_167_61">
<rect width="90" height="90" fill="white" transform="translate(0.491577 0.592773)"/>
</clipPath>
</defs>
</svg>
