<svg width="65" height="65" viewBox="0 0 65 65" fill="none" xmlns="http://www.w3.org/2000/svg">
<path d="M19.8879 48.8574L15.9652 44.9349C14.8862 43.8559 14.5053 42.2945 14.9877 40.8473C15.3686 39.7175 15.8764 38.245 16.4857 36.5566H3.05477C1.96303 36.5566 0.947461 35.9727 0.401591 35.0206C-0.144279 34.0685 -0.131584 32.9006 0.426981 31.9613L7.09167 20.7268C8.74198 17.9467 11.7252 16.2457 14.9497 16.2457H25.3974C25.702 15.7379 26.0067 15.2682 26.3114 14.8112C36.7083 -0.52357 52.1958 -1.03134 61.4375 0.669699C62.9101 0.936281 64.0526 2.09147 64.3319 3.56401C66.0329 12.8182 65.5125 28.2926 50.19 38.6893C49.7457 38.9939 49.2633 39.2986 48.7555 39.6033V50.0507C48.7555 53.2751 47.0544 56.2709 44.2743 57.9085L33.0395 64.573C32.1001 65.1316 30.9322 65.1443 29.9801 64.5984C29.028 64.0526 28.4441 63.0497 28.4441 61.9453V48.337C26.6541 48.959 25.0927 49.4668 23.9121 49.8476C22.4903 50.3046 20.9415 49.9111 19.8752 48.8574H19.8879ZM48.7555 21.3234C50.1022 21.3234 51.3938 20.7884 52.3461 19.8362C53.2984 18.8839 53.8334 17.5924 53.8334 16.2457C53.8334 14.899 53.2984 13.6074 52.3461 12.6552C51.3938 11.7029 50.1022 11.1679 48.7555 11.1679C47.4088 11.1679 46.1172 11.7029 45.1649 12.6552C44.2126 13.6074 43.6777 14.899 43.6777 16.2457C43.6777 17.5924 44.2126 18.8839 45.1649 19.8362C46.1172 20.7884 47.4088 21.3234 48.7555 21.3234Z" fill="#E53939"/>
</svg>
