<svg width="91" height="91" viewBox="0 0 91 91" fill="none" xmlns="http://www.w3.org/2000/svg">
<rect x="0.644043" y="0.305664" width="90" height="89.7965" fill="#E53939"/>
<path d="M74.2513 41.3288C76.4333 41.8289 78.4161 42.9547 79.9495 44.564C80.7941 45.4349 81.5275 46.4043 82.1334 47.4506C82.1616 47.5643 78.2013 50.1858 75.7995 51.6481C75.7123 51.7062 75.3663 51.3349 74.9741 50.7641C74.5354 50.021 73.9126 49.3997 73.164 48.958C72.4154 48.5163 71.5654 48.2688 70.6934 48.2386C67.9328 48.0517 66.1538 49.4761 66.1666 51.8577C66.1428 52.4428 66.2782 53.0235 66.5588 53.5397C67.1663 54.7772 68.2942 55.5197 71.8366 57.0325C78.3577 59.7979 81.1568 61.6214 82.8844 64.2126C83.861 65.8498 84.4624 67.6775 84.6466 69.5678C84.8308 71.4582 84.5933 73.3653 83.9508 75.1557C83.0677 77.1191 81.6673 78.8138 79.8949 80.064C78.1226 81.3141 76.043 82.0741 73.8719 82.265C71.5641 82.5258 69.2323 82.5021 66.9305 82.1943C63.4047 81.6235 60.1567 79.9562 57.6616 77.4362C56.7189 76.3903 55.9208 75.226 55.288 73.9737C55.5541 73.7787 55.8342 73.6032 56.1262 73.4484C56.5312 73.2211 58.0641 72.3523 59.5098 71.5265L62.1346 70.0112L62.6831 70.7991C63.607 72.1009 64.7831 73.2098 66.1436 74.0621C67.5176 74.8047 69.0739 75.1565 70.6391 75.0785C72.2042 75.0004 73.7165 74.4956 75.0074 73.6201C75.6733 72.9807 76.0896 72.1307 76.1833 71.2192C76.2771 70.3077 76.0423 69.3928 75.5201 68.6348C74.8126 67.6372 73.3669 66.7987 69.258 65.0435C66.0361 63.973 63.1014 62.1988 60.6735 59.8535C59.5173 58.5553 58.6634 57.0235 58.1717 55.3656C57.8082 53.477 57.7545 51.5431 58.0128 49.6377C58.4952 47.4452 59.65 45.4517 61.3208 43.9275C62.9916 42.4033 65.0976 41.422 67.3535 41.1166C69.6505 40.8462 71.9758 40.9177 74.2513 41.3288ZM52.8657 45.0741L52.8939 48.7462H41.0259V81.9518H32.6567V48.7538H20.7887V45.1474C20.7571 43.9123 20.7914 42.6765 20.8912 41.4449C20.9348 41.3868 28.1505 41.3591 36.899 41.3742L52.8196 41.4172L52.8657 45.0741Z" fill="white"/>
</svg>
