<svg width="927" height="181" viewBox="0 0 927 181" fill="none" xmlns="http://www.w3.org/2000/svg">
<g clip-path="url(#clip0_170_139)" filter="url(#filter0_d_170_139)">
<path d="M874.131 111.409C874.131 111.409 871.624 119.465 867.376 137.444C863.127 155.419 861.856 158.454 855.91 158.454C832.735 158.454 837.42 36.358 814.915 36.358C792.41 36.358 793.064 117.133 773.531 117.133C753.997 117.133 770.983 41.9611 746.351 41.9611C721.722 41.9611 744.227 119.935 721.722 119.935C699.217 119.935 711.531 90.9855 695.395 90.9855C679.258 90.9855 684.356 157.752 665.67 156.354C646.984 154.953 660.149 68.8081 641.889 69.0418C623.631 69.2755 637.638 159.155 615.981 157.988C594.325 156.821 610.038 46.1631 588.806 46.1631C567.569 46.1631 587.952 140.479 561.2 140.944C534.447 141.411 550.158 68.1068 530.198 68.1068C510.241 68.1068 501.323 65.7734 501.323 74.1774C501.323 82.5788 498.35 92.8514 480.942 92.8514C463.529 92.8514 467.352 129.737 454.612 129.272C441.872 128.804 448.244 56.9006 431.684 57.1356C415.119 57.3694 425.311 67.642 404.078 67.8744C382.846 68.1055 397.285 115.032 377.752 115.032C358.217 115.032 363.317 158.92 345.055 158.92C326.793 158.92 340.382 85.1486 317.45 85.1486C294.517 85.1486 306.409 27.7189 291.972 27.7189C277.535 27.7189 291.547 101.491 260.97 101.491C230.397 101.491 259.275 131.837 236.341 131.837C213.41 131.837 232.094 54.5658 215.11 54.5658C198.124 54.5658 212.56 79.5442 183.684 79.5442C154.808 79.5442 181.56 19.781 156.933 22.1144C132.302 24.4479 148.864 154.951 117.867 154.014C86.8657 153.082 115.744 49.895 94.9327 49.895C74.1255 49.895 100.475 106.577 43.3953 111.297" stroke="#E53939" stroke-width="2.66674" stroke-miterlimit="10"/>
<path d="M20 111.209H907H20Z" fill="white" stroke="#E53939" stroke-width="2.66674" stroke-miterlimit="22.9256"/>
</g>
<defs>
<filter id="filter0_d_170_139" x="0" y="0" width="927" height="181" filterUnits="userSpaceOnUse" color-interpolation-filters="sRGB">
<feFlood flood-opacity="0" result="BackgroundImageFix"/>
<feColorMatrix in="SourceAlpha" type="matrix" values="0 0 0 0 0 0 0 0 0 0 0 0 0 0 0 0 0 0 127 0" result="hardAlpha"/>
<feOffset/>
<feGaussianBlur stdDeviation="10"/>
<feComposite in2="hardAlpha" operator="out"/>
<feColorMatrix type="matrix" values="0 0 0 0 0.898039 0 0 0 0 0.223529 0 0 0 0 0.223529 0 0 0 1 0"/>
<feBlend mode="normal" in2="BackgroundImageFix" result="effect1_dropShadow_170_139"/>
<feBlend mode="normal" in="SourceGraphic" in2="effect1_dropShadow_170_139" result="shape"/>
</filter>
<clipPath id="clip0_170_139">
<rect width="887" height="141" fill="white" transform="translate(20 20)"/>
</clipPath>
</defs>
</svg>
